<mxfile host="app.diagrams.net" agent="Mozilla/5.0 (Macintosh; Intel Mac OS X 10_15_7) AppleWebKit/605.1.15 (KHTML, like Gecko) Version/18.5 Safari/605.1.15" version="27.1.6">
  <diagram name="ページ1" id="JiW2yd_i-2hRn8IqLw0Z">
    <mxGraphModel dx="1000" dy="873" grid="1" gridSize="10" guides="1" tooltips="1" connect="1" arrows="1" fold="1" page="1" pageScale="1" pageWidth="827" pageHeight="1169" math="0" shadow="0">
      <root>
        <mxCell id="0" />
        <mxCell id="1" parent="0" />
        <mxCell id="XbGb7R_sYNdbiPG3kaS9-1" value="Task manager" style="shape=umlActor;verticalLabelPosition=bottom;verticalAlign=top;html=1;outlineConnect=0;" vertex="1" parent="1">
          <mxGeometry x="80" y="490" width="30" height="60" as="geometry" />
        </mxCell>
        <mxCell id="XbGb7R_sYNdbiPG3kaS9-2" value="" style="whiteSpace=wrap;html=1;aspect=fixed;fillColor=#647687;fontColor=#ffffff;strokeColor=none;movable=0;resizable=0;rotatable=0;deletable=0;editable=0;locked=1;connectable=0;" vertex="1" parent="1">
          <mxGeometry x="180" y="270" width="670" height="670" as="geometry" />
        </mxCell>
        <mxCell id="XbGb7R_sYNdbiPG3kaS9-3" value="&lt;span style=&quot;color: light-dark(transparent, rgb(0, 0, 0));&quot;&gt;Create task&lt;/span&gt;" style="ellipse;whiteSpace=wrap;html=1;fillColor=light-dark(#E3C800,#FFFFFF);fontColor=#000000;strokeColor=#B09500;" vertex="1" parent="1">
          <mxGeometry x="190" y="300" width="120" height="80" as="geometry" />
        </mxCell>
        <mxCell id="XbGb7R_sYNdbiPG3kaS9-4" value="" style="endArrow=none;html=1;rounded=0;fontSize=12;startSize=8;endSize=8;curved=1;entryX=0;entryY=0.5;entryDx=0;entryDy=0;strokeColor=light-dark(#000000,#FFFFFF);" edge="1" parent="1" target="XbGb7R_sYNdbiPG3kaS9-3">
          <mxGeometry width="50" height="50" relative="1" as="geometry">
            <mxPoint x="120" y="500" as="sourcePoint" />
            <mxPoint x="390" y="580" as="targetPoint" />
          </mxGeometry>
        </mxCell>
        <mxCell id="XbGb7R_sYNdbiPG3kaS9-5" value="&lt;font&gt;&lt;span style=&quot;caret-color: rgb(0, 0, 0); color: light-dark(rgb(0, 0, 0), rgb(0, 0, 0));&quot;&gt;Categorize urgency&lt;/span&gt;&lt;/font&gt;" style="ellipse;whiteSpace=wrap;html=1;strokeColor=light-dark(#000000,#FFFFFF);fillColor=light-dark(#FFFFFF,#FFFFFF);" vertex="1" parent="1">
          <mxGeometry x="370" y="485" width="120" height="80" as="geometry" />
        </mxCell>
        <mxCell id="XbGb7R_sYNdbiPG3kaS9-7" value="&lt;font&gt;&lt;span style=&quot;caret-color: rgb(0, 0, 0); color: light-dark(rgb(0, 0, 0), rgb(0, 0, 0));&quot;&gt;Update task status&lt;/span&gt;&lt;/font&gt;" style="ellipse;whiteSpace=wrap;html=1;fillColor=light-dark(#FFFFFF,#FFFFFF);" vertex="1" parent="1">
          <mxGeometry x="670" y="620" width="120" height="80" as="geometry" />
        </mxCell>
        <mxCell id="XbGb7R_sYNdbiPG3kaS9-8" value="" style="endArrow=none;html=1;rounded=0;fontSize=12;startSize=8;endSize=8;exitX=1;exitY=0.5;exitDx=0;exitDy=0;" edge="1" parent="1" source="XbGb7R_sYNdbiPG3kaS9-7">
          <mxGeometry width="50" height="50" relative="1" as="geometry">
            <mxPoint x="540" y="700" as="sourcePoint" />
            <mxPoint x="870" y="570" as="targetPoint" />
          </mxGeometry>
        </mxCell>
        <mxCell id="XbGb7R_sYNdbiPG3kaS9-9" value="&lt;font&gt;&lt;span style=&quot;caret-color: rgb(33, 33, 33); color: light-dark(rgb(33, 33, 33), rgb(0, 0, 0));&quot;&gt;Set task precedence&amp;nbsp;&lt;/span&gt;&lt;/font&gt;" style="ellipse;whiteSpace=wrap;html=1;fillColor=light-dark(#FFFFFF,#FFFFFF);" vertex="1" parent="1">
          <mxGeometry x="211" y="510" width="120" height="75" as="geometry" />
        </mxCell>
        <mxCell id="XbGb7R_sYNdbiPG3kaS9-10" value="" style="endArrow=none;html=1;rounded=0;fontSize=12;startSize=8;endSize=8;curved=1;exitX=0.5;exitY=0;exitDx=0;exitDy=0;startArrow=none;startFill=0;" edge="1" parent="1" source="XbGb7R_sYNdbiPG3kaS9-13" target="XbGb7R_sYNdbiPG3kaS9-3">
          <mxGeometry width="50" height="50" relative="1" as="geometry">
            <mxPoint x="410" y="810" as="sourcePoint" />
            <mxPoint x="460" y="760" as="targetPoint" />
          </mxGeometry>
        </mxCell>
        <mxCell id="XbGb7R_sYNdbiPG3kaS9-14" value="Task assigner" style="shape=umlActor;verticalLabelPosition=bottom;verticalAlign=top;html=1;outlineConnect=0;" vertex="1" parent="1">
          <mxGeometry x="890" y="485" width="30" height="60" as="geometry" />
        </mxCell>
        <mxCell id="XbGb7R_sYNdbiPG3kaS9-15" value="" style="endArrow=none;html=1;rounded=0;fontSize=12;startSize=8;endSize=8;curved=1;entryX=0.5;entryY=1;entryDx=0;entryDy=0;exitX=0.5;exitY=0;exitDx=0;exitDy=0;startArrow=blockThin;startFill=1;" edge="1" parent="1" source="XbGb7R_sYNdbiPG3kaS9-9" target="XbGb7R_sYNdbiPG3kaS9-13">
          <mxGeometry width="50" height="50" relative="1" as="geometry">
            <mxPoint x="319" y="570" as="sourcePoint" />
            <mxPoint x="290" y="490" as="targetPoint" />
          </mxGeometry>
        </mxCell>
        <mxCell id="XbGb7R_sYNdbiPG3kaS9-13" value="Include" style="text;html=1;align=center;verticalAlign=middle;resizable=0;points=[];autosize=1;strokeColor=none;fillColor=none;fontSize=16;" vertex="1" parent="1">
          <mxGeometry x="210" y="415" width="80" height="30" as="geometry" />
        </mxCell>
        <mxCell id="XbGb7R_sYNdbiPG3kaS9-16" value="Manage sticker boards&amp;nbsp;" style="ellipse;whiteSpace=wrap;html=1;" vertex="1" parent="1">
          <mxGeometry x="237" y="660" width="120" height="80" as="geometry" />
        </mxCell>
        <mxCell id="XbGb7R_sYNdbiPG3kaS9-18" value="" style="endArrow=none;html=1;rounded=0;fontSize=12;startSize=8;endSize=8;entryX=0.5;entryY=1;entryDx=0;entryDy=0;exitX=0;exitY=0;exitDx=0;exitDy=0;endFill=1;startArrow=blockThin;startFill=1;entryPerimeter=0;" edge="1" parent="1" source="XbGb7R_sYNdbiPG3kaS9-5" target="XbGb7R_sYNdbiPG3kaS9-12">
          <mxGeometry width="50" height="50" relative="1" as="geometry">
            <mxPoint x="420" y="490" as="sourcePoint" />
            <mxPoint x="292" y="378" as="targetPoint" />
          </mxGeometry>
        </mxCell>
        <mxCell id="XbGb7R_sYNdbiPG3kaS9-12" value="Include" style="text;html=1;align=center;verticalAlign=middle;resizable=0;points=[];autosize=1;strokeColor=none;fillColor=none;fontSize=16;" vertex="1" parent="1">
          <mxGeometry x="290" y="380" width="80" height="30" as="geometry" />
        </mxCell>
        <mxCell id="XbGb7R_sYNdbiPG3kaS9-19" value="" style="endArrow=none;html=1;rounded=0;fontSize=12;startSize=8;endSize=8;curved=1;entryX=1;entryY=1;entryDx=0;entryDy=0;" edge="1" parent="1" source="XbGb7R_sYNdbiPG3kaS9-12" target="XbGb7R_sYNdbiPG3kaS9-3">
          <mxGeometry width="50" height="50" relative="1" as="geometry">
            <mxPoint x="470" y="410" as="sourcePoint" />
            <mxPoint x="360" y="500" as="targetPoint" />
          </mxGeometry>
        </mxCell>
        <mxCell id="XbGb7R_sYNdbiPG3kaS9-23" value="View assigned task" style="ellipse;whiteSpace=wrap;html=1;rotation=0;" vertex="1" parent="1">
          <mxGeometry x="660" y="390" width="120" height="80" as="geometry" />
        </mxCell>
        <mxCell id="XbGb7R_sYNdbiPG3kaS9-24" value="Assign task" style="ellipse;whiteSpace=wrap;html=1;" vertex="1" parent="1">
          <mxGeometry x="450" y="275" width="120" height="80" as="geometry" />
        </mxCell>
        <mxCell id="XbGb7R_sYNdbiPG3kaS9-25" value="" style="endArrow=none;html=1;rounded=0;fontSize=12;startSize=8;endSize=8;curved=1;exitX=1;exitY=0.333;exitDx=0;exitDy=0;entryX=0;entryY=0.5;entryDx=0;entryDy=0;exitPerimeter=0;" edge="1" parent="1" source="XbGb7R_sYNdbiPG3kaS9-37" target="XbGb7R_sYNdbiPG3kaS9-24">
          <mxGeometry width="50" height="50" relative="1" as="geometry">
            <mxPoint x="410" y="380" as="sourcePoint" />
            <mxPoint x="460" y="330" as="targetPoint" />
          </mxGeometry>
        </mxCell>
        <mxCell id="XbGb7R_sYNdbiPG3kaS9-28" value="" style="endArrow=none;html=1;rounded=0;fontSize=12;startSize=8;endSize=8;curved=1;exitX=1;exitY=0.5;exitDx=0;exitDy=0;" edge="1" parent="1" source="XbGb7R_sYNdbiPG3kaS9-23">
          <mxGeometry width="50" height="50" relative="1" as="geometry">
            <mxPoint x="570" y="670" as="sourcePoint" />
            <mxPoint x="880" y="480" as="targetPoint" />
          </mxGeometry>
        </mxCell>
        <mxCell id="XbGb7R_sYNdbiPG3kaS9-33" value="Categorize task" style="ellipse;whiteSpace=wrap;html=1;" vertex="1" parent="1">
          <mxGeometry x="455" y="380" width="120" height="90" as="geometry" />
        </mxCell>
        <mxCell id="XbGb7R_sYNdbiPG3kaS9-34" value="" style="endArrow=none;html=1;rounded=0;fontSize=12;startSize=8;endSize=8;curved=1;entryX=1;entryY=0.5;entryDx=0;entryDy=0;exitX=0;exitY=0.5;exitDx=0;exitDy=0;" edge="1" parent="1" source="XbGb7R_sYNdbiPG3kaS9-35" target="XbGb7R_sYNdbiPG3kaS9-3">
          <mxGeometry width="50" height="50" relative="1" as="geometry">
            <mxPoint x="480" y="570" as="sourcePoint" />
            <mxPoint x="530" y="520" as="targetPoint" />
          </mxGeometry>
        </mxCell>
        <mxCell id="XbGb7R_sYNdbiPG3kaS9-36" value="" style="endArrow=none;html=1;rounded=0;fontSize=12;startSize=8;endSize=8;curved=1;entryX=0.575;entryY=1;entryDx=0;entryDy=0;exitX=0;exitY=0.5;exitDx=0;exitDy=0;entryPerimeter=0;" edge="1" parent="1" source="XbGb7R_sYNdbiPG3kaS9-33" target="XbGb7R_sYNdbiPG3kaS9-35">
          <mxGeometry width="50" height="50" relative="1" as="geometry">
            <mxPoint x="390" y="405" as="sourcePoint" />
            <mxPoint x="310" y="340" as="targetPoint" />
          </mxGeometry>
        </mxCell>
        <mxCell id="XbGb7R_sYNdbiPG3kaS9-35" value="Include" style="text;html=1;align=center;verticalAlign=middle;resizable=0;points=[];autosize=1;strokeColor=none;fillColor=none;fontSize=16;" vertex="1" parent="1">
          <mxGeometry x="364" y="360" width="80" height="30" as="geometry" />
        </mxCell>
        <mxCell id="XbGb7R_sYNdbiPG3kaS9-38" value="" style="endArrow=none;html=1;rounded=0;fontSize=12;startSize=8;endSize=8;curved=1;exitX=1;exitY=0;exitDx=0;exitDy=0;" edge="1" parent="1" source="XbGb7R_sYNdbiPG3kaS9-3" target="XbGb7R_sYNdbiPG3kaS9-37">
          <mxGeometry width="50" height="50" relative="1" as="geometry">
            <mxPoint x="292" y="312" as="sourcePoint" />
            <mxPoint x="432" y="292" as="targetPoint" />
          </mxGeometry>
        </mxCell>
        <mxCell id="XbGb7R_sYNdbiPG3kaS9-37" value="Include" style="text;html=1;align=center;verticalAlign=middle;resizable=0;points=[];autosize=1;strokeColor=none;fillColor=none;fontSize=16;" vertex="1" parent="1">
          <mxGeometry x="320" y="300" width="80" height="30" as="geometry" />
        </mxCell>
        <mxCell id="XbGb7R_sYNdbiPG3kaS9-39" value="Manage category&amp;nbsp;" style="ellipse;whiteSpace=wrap;html=1;" vertex="1" parent="1">
          <mxGeometry x="190" y="790" width="120" height="80" as="geometry" />
        </mxCell>
        <mxCell id="XbGb7R_sYNdbiPG3kaS9-40" value="" style="endArrow=none;html=1;rounded=0;fontSize=12;startSize=8;endSize=8;curved=1;exitX=0;exitY=0;exitDx=0;exitDy=0;" edge="1" parent="1" source="XbGb7R_sYNdbiPG3kaS9-39">
          <mxGeometry width="50" height="50" relative="1" as="geometry">
            <mxPoint x="480" y="850" as="sourcePoint" />
            <mxPoint x="120" y="580" as="targetPoint" />
          </mxGeometry>
        </mxCell>
        <mxCell id="XbGb7R_sYNdbiPG3kaS9-41" value="" style="endArrow=none;html=1;rounded=0;fontSize=12;startSize=8;endSize=8;curved=1;entryX=0;entryY=0;entryDx=0;entryDy=0;" edge="1" parent="1" target="XbGb7R_sYNdbiPG3kaS9-16">
          <mxGeometry width="50" height="50" relative="1" as="geometry">
            <mxPoint x="140" y="530" as="sourcePoint" />
            <mxPoint x="510" y="570" as="targetPoint" />
          </mxGeometry>
        </mxCell>
      </root>
    </mxGraphModel>
  </diagram>
</mxfile>
